<?xml version="1.0" encoding="utf-8"?>
<!-- Generator: Adobe Illustrator 16.0.0, SVG Export Plug-In . SVG Version: 6.00 Build 0)  -->
<!DOCTYPE svg PUBLIC "-//W3C//DTD SVG 1.1//EN" "http://www.w3.org/Graphics/SVG/1.1/DTD/svg11.dtd">
<svg version="1.1" id="inactive-project" xmlns="http://www.w3.org/2000/svg" xmlns:xlink="http://www.w3.org/1999/xlink" x="0px" y="0px"
	 width="244px" height="191.6px" viewBox="0 0 244 191.6" style="enable-background:new 0 0 244 191.6;" xml:space="preserve">
<style type="text/css">
<![CDATA[
	.st0{fill:#838383;}
	.st1{enable-background:new    ;}
	.st2{fill:#BCBCBC;enable-background:new    ;}
	.st3{fill:#FFFFFF;}
	.st4{fill:#828282;enable-background:new    ;}
]]>
</style>
<g class="st1">
	<g>
		<path class="st0" d="M91.5,174.3c0,5.5-4.5,10-10,10H16c-5.5,0-10-4.5-10-10v-156c0-5.5,4.5-10,10-10h65.5c5.5,0,10,4.5,10,10
			V174.3z"/>
	</g>
	<g>
		<path class="st0" d="M238.5,174.3c0,5.5-4.5,10-10,10H16c-5.5,0-10-4.5-10-10V48.8c0-5.5,4.5-10,10-10h212.5c5.5,0,10,4.5,10,10
			V174.3z"/>
	</g>
</g>
<g>
	<g>
		<circle class="st3" cx="79.3" cy="86" r="34.5"/>
		<circle class="st3" cx="168.2" cy="97.2" r="34.5"/>
		<circle class="st4" cx="79.5" cy="82.7" r="16"/>
		<circle class="st4" cx="168.2" cy="95.2" r="16"/>
		<path class="st2" d="M168.2,60.7c-21.5,0-39,17.5-39,39h78C207.2,78.2,189.8,60.7,168.2,60.7z"/>
	</g>
	<path class="st2" d="M79.3,48.7c-21.5,0-39,17.5-39,39h78C118.3,66.2,100.9,48.7,79.3,48.7z"/>
</g>
<polygon class="st2" points="31.4,131.7 74,131.7 216.1,162 172.4,162 "/>
</svg>
